<?xml version="1.0" encoding="iso-8859-1"?>
<!-- Generator: Adobe Illustrator 18.0.0, SVG Export Plug-In . SVG Version: 6.00 Build 0)  -->
<!DOCTYPE svg PUBLIC "-//W3C//DTD SVG 1.1//EN" "http://www.w3.org/Graphics/SVG/1.1/DTD/svg11.dtd">
<svg version="1.1" id="Capa_1" xmlns="http://www.w3.org/2000/svg" xmlns:xlink="http://www.w3.org/1999/xlink" x="0px" y="0px"
	 viewBox="0 0 512 512" style="enable-background:new 0 0 512 512;" xml:space="preserve">

	<path d="M296.422,384h-80.844C197.906,384,192,398.328,192,416v19.203c0,10.773,1.461,19.836,9.625,25.637
		c1.855,28.457,25.18,51.16,56.48,51.16s51.467-22.703,53.322-51.16c8.164-5.801,8.572-14.863,8.572-25.637V416
		C320,398.328,314.094,384,296.422,384z"/>
	<path d="M256,0C167.781,0,96,70.141,96,156.359c0,46.516,20.813,90.031,57.219,119.844c1.234,1.172,2.578,2.25,4.031,3.219
		c16.484,11.141,26.328,26.313,26.328,40.578c0,17.672,14.328,32,32,32h80.844c17.672,0,32-14.328,32-32
		c0-14.266,9.844-29.438,26.328-40.578c1.406-0.938,2.703-1.984,3.922-3.125C395.141,246.484,416,202.922,416,156.359
		C416,70.141,344.219,0,256,0z M256,80c-44.109,0-80,35.891-80,80c0,8.844-7.156,16-16,16c-8.844,0-16-7.156-16-16
		c0-61.75,50.25-112,112-112c8.844,0,16,7.156,16,16C272,72.844,264.844,80,256,80z"/>

</svg>
